<svg viewBox="0 0 24 24" xmlns="http://www.w3.org/2000/svg">
  <path fill="#000" d="M12 0C5.37 0 0 5.37 0 12c0 5.3 3.44 9.8 8.2 11.38.6.1.82-.26.82-.58v-2.23c-3.34.73-4.04-1.61-4.04-1.61-.55-1.4-1.34-1.77-1.34-1.77-1.1-.75.08-.73.08-.73 1.22.09 1.86 1.26 1.86 1.26 1.08 1.86 2.84 1.32 3.54 1.01.11-.78.42-1.32.76-1.62-2.66-.3-5.47-1.34-5.47-5.95 0-1.31.47-2.38 1.24-3.22-.12-.3-.54-1.52.12-3.18 0 0 1-.32 3.3 1.23a11.5 11.5 0 013 0c2.3-1.55 3.3-1.23 3.3-1.23.66 1.66.24 2.88.12 3.18.77.84 1.24 1.91 1.24 3.22 0 4.62-2.81 5.65-5.49 5.95.43.37.82 1.1.82 2.22v3.29c0 .32.22.69.83.58C20.56 21.8 24 17.3 24 12 24 5.37 18.63 0 12 0z"/>
</svg>
